# 3ds Max Wavefront OBJ Exporter v0.97b - (c)2007 guruware
# File Created: 15.09.2015 18:45:01

mtllib 3d-model.mtl

#
# object Composant__1_002
#

v  2.9112 0.0000 -123.9557
v  2.9111 0.0000 123.9557
v  2.9111 277.2477 123.9557
v  2.9112 277.2477 -123.9557
# 4 vertices

vn -1.0000 0.0000 -0.0000
# 1 vertex normals

vt 1.0000 0.0000 0.0000
vt 0.0000 0.0000 0.0000
vt 0.0000 0.9922 0.0000
vt 1.0000 0.9922 0.0000
# 4 texture coords

g Composant__1_002
usemtl wire_177028149
s off
f 1/1/1 2/2/1 3/3/1 4/4/1 
# 1 polygons

#
# object Composant__1_001
#

v  -123.9557 0.0000 2.9112
v  123.9557 0.0000 2.9112
v  123.9557 277.2477 2.9112
v  -123.9557 277.2477 2.9112
# 4 vertices

vn -0.0000 0.0000 1.0000
# 1 vertex normals

vt 1.0000 0.0000 0.0000
vt 0.0000 0.0000 0.0000
vt 0.0000 0.9922 0.0000
vt 1.0000 0.9922 0.0000
# 4 texture coords

g Composant__1_001
usemtl wire_224086086
s off
f 5/5/2 6/6/2 7/7/2 8/8/2 
# 1 polygons

